HIERARCHY
ROOT hips
{
  OFFSET 0 9.313263304106702 1.2146308026317778
  CHANNELS 6 Xposition Yposition Zposition Yrotation Xrotation Zrotation
  JOINT spine
  {
    OFFSET -6.402521e-31 0.5173342420023708 0
    CHANNELS 3 Yrotation Xrotation Zrotation
    JOINT chest
    {
      OFFSET 0 1.130544299341115 0
      CHANNELS 3 Yrotation Xrotation Zrotation
      JOINT upperChest
      {
        OFFSET 0 1.0863555061129995 0
        CHANNELS 3 Yrotation Xrotation Zrotation
        JOINT neck
        {
          OFFSET 0 1.3773706506454462 0
          CHANNELS 3 Yrotation Xrotation Zrotation
          JOINT head
          {
            OFFSET 0 0.7374408940073979 0
            CHANNELS 3 Yrotation Xrotation Zrotation
            JOINT leftEye
            {
              OFFSET 0.25066580148932727 0.6408406698778757 0.15963719178883284
              CHANNELS 3 Yrotation Xrotation Zrotation
              End Site
              {
                OFFSET 0.25066580148932727 0.6408406698778757 0.15963719178883284
              }
            }
            JOINT rightEye
            {
              OFFSET -0.25066576739704244 0.6408406384191823 0.15963727561643756
              CHANNELS 3 Yrotation Xrotation Zrotation
              End Site
              {
                OFFSET -0.25066576739704244 0.6408406384191823 0.15963727561643756
              }
            }
          }
        }
        JOINT leftShoulder
        {
          OFFSET 0.3761817444281191 1.0539491987447769 0
          CHANNELS 3 Yrotation Xrotation Zrotation
          JOINT leftUpperArm
          {
            OFFSET 0.8702844380000002 0 0
            CHANNELS 3 Yrotation Xrotation Zrotation
            JOINT leftLowerArm
            {
              OFFSET 2.198527310000323 0 0
              CHANNELS 3 Yrotation Xrotation Zrotation
              JOINT leftHand
              {
                OFFSET 2.146852313968281 0 0
                CHANNELS 3 Yrotation Xrotation Zrotation
                JOINT leftIndexProximal
                {
                  OFFSET 0.6585177834681599 0.07380250427007962 0.18382213159631788
                  CHANNELS 3 Yrotation Xrotation Zrotation
                  JOINT leftIndexIntermediate
                  {
                    OFFSET 0.3323021288626682 -0.009606893929485771 -0.012820872253340998
                    CHANNELS 3 Yrotation Xrotation Zrotation
                    JOINT leftIndexDistal
                    {
                      OFFSET 0.2045908926985518 -0.0071133989147997845 -0.006828784783599051
                      CHANNELS 3 Yrotation Xrotation Zrotation
                      End Site
                      {
                        OFFSET 0.2045908926985518 -0.0071133989147997845 -0.006828784783599051
                      }
                    }
                  }
                }
                JOINT leftLittleProximal
                {
                  OFFSET 0.6110054258835662 0.07380246363125398 -0.29175655876064077
                  CHANNELS 3 Yrotation Xrotation Zrotation
                  JOINT leftLittleIntermediate
                  {
                    OFFSET 0.3144281999999998 -2.5124724523095665e-9 1.8658118799974588e-7
                    CHANNELS 3 Yrotation Xrotation Zrotation
                    JOINT leftLittleDistal
                    {
                      OFFSET 0.18116185580251631 0.002815456192251098 0.0034826415518049436
                      CHANNELS 3 Yrotation Xrotation Zrotation
                      End Site
                      {
                        OFFSET 0.18116185580251631 0.002815456192251098 0.0034826415518049436
                      }
                    }
                  }
                }
                JOINT leftMiddleProximal
                {
                  OFFSET 0.6637478005691111 0.07380246480054087 0.02046981859247815
                  CHANNELS 3 Yrotation Xrotation Zrotation
                  JOINT leftMiddleIntermediate
                  {
                    OFFSET 0.3705733999999994 -2.9611069152224445e-9 9.35054791928458e-8
                    CHANNELS 3 Yrotation Xrotation Zrotation
                    JOINT leftMiddleDistal
                    {
                      OFFSET 0.22861063500000056 -1.82673876025774e-9 -1.6740782024515788e-7
                      CHANNELS 3 Yrotation Xrotation Zrotation
                      End Site
                      {
                        OFFSET 0.22861063500000056 -1.82673876025774e-9 -1.6740782024515788e-7
                      }
                    }
                  }
                }
                JOINT leftRingProximal
                {
                  OFFSET 0.6561845547265777 0.07380246406440083 -0.13588087571513918
                  CHANNELS 3 Yrotation Xrotation Zrotation
                  JOINT leftRingIntermediate
                  {
                    OFFSET 0.3437531000000005 -2.746796123886952e-9 1.4935781944558357e-7
                    CHANNELS 3 Yrotation Xrotation Zrotation
                    JOINT leftRingDistal
                    {
                      OFFSET 0.1983118991198174 -0.002467117924596085 -0.004538141969590015
                      CHANNELS 3 Yrotation Xrotation Zrotation
                      End Site
                      {
                        OFFSET 0.1983118991198174 -0.002467117924596085 -0.004538141969590015
                      }
                    }
                  }
                }
                JOINT leftThumbProximal
                {
                  OFFSET 0.09767004258864787 -0.14930060425447422 -0.07008212897521154
                  CHANNELS 3 Yrotation Xrotation Zrotation
                  JOINT leftThumbIntermediate
                  {
                    OFFSET 0.36682123028154767 -0.015768465060082004 0.28693641268151077
                    CHANNELS 3 Yrotation Xrotation Zrotation
                    JOINT leftThumbDistal
                    {
                      OFFSET 0.21091084272403915 -0.016756648201192714 0.1933767059105508
                      CHANNELS 3 Yrotation Xrotation Zrotation
                      End Site
                      {
                        OFFSET 0.21091084272403915 -0.016756648201192714 0.1933767059105508
                      }
                    }
                  }
                }
              }
            }
          }
        }
        JOINT rightShoulder
        {
          OFFSET -0.37618174442811925 1.0539491987447769 0
          CHANNELS 3 Yrotation Xrotation Zrotation
          JOINT rightUpperArm
          {
            OFFSET -0.870284438 0 0
            CHANNELS 3 Yrotation Xrotation Zrotation
            JOINT rightLowerArm
            {
              OFFSET -2.1985273100003235 0 0
              CHANNELS 3 Yrotation Xrotation Zrotation
              JOINT rightHand
              {
                OFFSET -2.1468523139682802 0 0
                CHANNELS 3 Yrotation Xrotation Zrotation
                JOINT rightIndexProximal
                {
                  OFFSET -0.6585177834681599 0.07380250427007962 0.18382213159631788
                  CHANNELS 3 Yrotation Xrotation Zrotation
                  JOINT rightIndexIntermediate
                  {
                    OFFSET -0.3323021288626682 -0.009606893929485771 -0.012820872253340998
                    CHANNELS 3 Yrotation Xrotation Zrotation
                    JOINT rightIndexDistal
                    {
                      OFFSET -0.2045908926985518 -0.0071133989147997845 -0.006828784783599051
                      CHANNELS 3 Yrotation Xrotation Zrotation
                      End Site
                      {
                        OFFSET -0.2045908926985518 -0.0071133989147997845 -0.006828784783599051
                      }
                    }
                  }
                }
                JOINT rightLittleProximal
                {
                  OFFSET -0.6110054258835662 0.07380246363125398 -0.29175655876064077
                  CHANNELS 3 Yrotation Xrotation Zrotation
                  JOINT rightLittleIntermediate
                  {
                    OFFSET -0.3144281999999998 -2.5124724523095665e-9 1.8658118799974588e-7
                    CHANNELS 3 Yrotation Xrotation Zrotation
                    JOINT rightLittleDistal
                    {
                      OFFSET -0.18116185580251631 0.002815456192251098 0.0034826415518049436
                      CHANNELS 3 Yrotation Xrotation Zrotation
                      End Site
                      {
                        OFFSET -0.18116185580251631 0.002815456192251098 0.0034826415518049436
                      }
                    }
                  }
                }
                JOINT rightMiddleProximal
                {
                  OFFSET -0.6637478005691111 0.07380246480054087 0.02046981859247815
                  CHANNELS 3 Yrotation Xrotation Zrotation
                  JOINT rightMiddleIntermediate
                  {
                    OFFSET -0.3705733999999994 -2.9611069152224445e-9 9.35054791928458e-8
                    CHANNELS 3 Yrotation Xrotation Zrotation
                    JOINT rightMiddleDistal
                    {
                      OFFSET -0.22861063500000056 -1.82673876025774e-9 -1.6740782024515788e-7
                      CHANNELS 3 Yrotation Xrotation Zrotation
                      End Site
                      {
                        OFFSET -0.22861063500000056 -1.82673876025774e-9 -1.6740782024515788e-7
                      }
                    }
                  }
                }
                JOINT rightRingProximal
                {
                  OFFSET -0.6561845547265777 0.07380246406440083 -0.13588087571513918
                  CHANNELS 3 Yrotation Xrotation Zrotation
                  JOINT rightRingIntermediate
                  {
                    OFFSET -0.3437531000000005 -2.746796123886952e-9 1.4935781944558357e-7
                    CHANNELS 3 Yrotation Xrotation Zrotation
                    JOINT rightRingDistal
                    {
                      OFFSET -0.1983118991198174 -0.002467117924596085 -0.004538141969590015
                      CHANNELS 3 Yrotation Xrotation Zrotation
                      End Site
                      {
                        OFFSET -0.1983118991198174 -0.002467117924596085 -0.004538141969590015
                      }
                    }
                  }
                }
                JOINT rightThumbProximal
                {
                  OFFSET -0.09767004258864787 -0.14930060425447422 -0.07008212897521154
                  CHANNELS 3 Yrotation Xrotation Zrotation
                  JOINT rightThumbIntermediate
                  {
                    OFFSET -0.36682123028154767 -0.015768465060082004 0.28693641268151077
                    CHANNELS 3 Yrotation Xrotation Zrotation
                    JOINT rightThumbDistal
                    {
                      OFFSET -0.21091084272403915 -0.016756648201192714 0.1933767059105508
                      CHANNELS 3 Yrotation Xrotation Zrotation
                      End Site
                      {
                        OFFSET -0.21091084272403915 -0.016756648201192714 0.1933767059105508
                      }
                    }
                  }
                }
              }
            }
          }
        }
      }
    }
  }
  JOINT leftUpperLeg
  {
    OFFSET 0.7715603 -0.3993844658041501 0
    CHANNELS 3 Yrotation Xrotation Zrotation
    JOINT leftLowerLeg
    {
      OFFSET 0 -3.529830000249343 0
      CHANNELS 3 Yrotation Xrotation Zrotation
      JOINT leftFoot
      {
        OFFSET 0 -4.154939295409685 0.004208579085223096
        CHANNELS 3 Yrotation Xrotation Zrotation
        JOINT leftToes
        {
          OFFSET 0 -0.6353414391261847 1.10414981190622
          CHANNELS 3 Yrotation Xrotation Zrotation
          End Site
          {
            OFFSET 0 -0.6015820691747853 1.10414981190622
          }
        }
      }
    }
  }
  JOINT rightUpperLeg
  {
    OFFSET -0.7715603 -0.3993844658041501 0
    CHANNELS 3 Yrotation Xrotation Zrotation
    JOINT rightLowerLeg
    {
      OFFSET 0 -3.529830000249343 0
      CHANNELS 3 Yrotation Xrotation Zrotation
      JOINT rightFoot
      {
        OFFSET 0 -4.154939295409685 0.004208579085223096
        CHANNELS 3 Yrotation Xrotation Zrotation
        JOINT rightToes
        {
          OFFSET 0 -0.6353414391261847 1.10414981190622
          CHANNELS 3 Yrotation Xrotation Zrotation
          End Site
          {
            OFFSET 0 -0.6015820691747853 1.10414981190622
          }
        }
      }
    }
  }
}
MOTION
Frames: 4
Frame Time: 0.03333333333333333
-0.23228997533971613 8.69295987215909 1.33771519333706 5.027295891725668 -3.9886255403495565 -9.279419087928932 4.0579888592769615 2.243136030620586 4.3155072098701375 0.24985005349450812 1.8732183062628254 -7.079548002202547 0 0 0 -3.481034776680989 6.342874268998075 5.5353869426718 -28.950072506910214 8.79462917671947 27.713458580814684 0 0 0 0 0 0 -14.24903375446575 4.209296396028595 8.815590929513123 -46.5253989254361 49.26325713474711 -93.83863757991898 -93.64308088363364 -0.0000652515815979949 0.00007648763673577806 -10.209000357107023 29.281701399269934 39.26336083901804 -11.93652657917366 2.2407291078901306 5.74625787200974 2.6558914638221482 0.32487987552418574 -18.663664436679955 0.8150963264423955 0.03536933311544885 -10.227447100292306 15.967506347877494 0.21378270900292554 -15.748896656614326 4.7311889628341985 2.353715912575725 -56.578800477338845 2.8293402443380526 0.5550743576094652 -20.458601325724505 -4.532810273952681 0.3098048031053949 -0.7267414885451489 3.9722320160314353 0.9023611074194948 -33.077177274566445 1.491546675796993 0.1708214966177332 -12.262811656497544 5.713817424420134 0.2885623849380233 0.48960582817815657 3.9694248785926294 1.791998678453272 -41.269593984094975 1.8301646289859737 0.5425210679863524 -19.27174877018973 -40.900728308485924 24.242734100037303 0.7516380944676148 5.239062987118 -8.952697712470258 -6.5769975948078745 -23.309868889910224 -4.942665675232218 6.867643510704743 19.54194579976907 0.234084547599582 8.202041798051706 -0.9808148939911747 -8.178153963266688 59.884505269407285 149.6353451921502 0.000003666517788798193 0.000002888394526200515 0.15097386583773387 -21.39068867232116 31.387355009929546 -5.144139623928401 0.4232688318315085 12.366085846049508 -6.539872063147906 5.206746575251983 84.0461353045561 -0.22654018291052505 -0.19321310428233865 13.844661205343167 -18.324016118395747 8.462483296288958 74.38332487592506 -6.024050391033248 7.060303164388847 109.37379869083014 -0.3119606622526296 -0.7652547883165299 22.124671863140524 -10.642196887360917 3.014517008365642 46.693445943345786 -6.137321817737271 3.4780515825607554 67.92772738371956 -1.725950497157545 0.21556014480810978 15.89166933467567 -11.990627119229385 5.308924559734512 57.39619459783129 -5.522382771496454 6.19362340875484 89.07758032270677 0.023250297604595394 -0.15169326255512058 17.815306469597633 -11.963270368638739 -10.184527281880941 -7.7447225660774155 -9.129206006544514 5.524414652085795 -6.802112695585339 -11.39383365671795 -6.8025375082769495 10.928343144224902 -28.695427827954195 -4.612480042100663 17.365794604517735 -7.559053407653446 37.97402962815285 -2.2354052417783614 -1.8669887572734878 -3.4602239233026424 -9.634486636748033 0.000005433167814059906 -26.243266553433713 -0.000014996618865274165 -1.5687406137185687 1.2236411506871907 16.07644392828986 -2.142608135352804 11.29815932208565 5.561497551743845 -7.844682059782487 -10.27782043113327 -11.22794709068211 4.904073018630283e-7 -1.7161035079015803 -5.249446859207826e-7
-0.23304874246770685 8.693272850730201 1.3422902426723662 5.047158080894526 -3.9700179337011705 -9.294598878275362 4.0552954223698485 2.251925348066593 4.331877711578973 0.2488966677911352 1.875662901081051 -7.073351301271842 0 0 0 -3.4811525578394087 6.349260353628356 5.521983896294832 -28.94051208842111 8.842738584262293 27.72252369980076 0 0 0 0 0 0 -14.223225038630261 4.212445075158387 8.852084902644412 -46.517262945179745 49.2091442736908 -93.87369782873357 -93.60445872532152 -0.00008683961614155337 0.00008012285135272787 -10.26077628213044 29.303686667512736 39.22737571940785 -11.935022565521658 2.2280699726397275 5.705511701005122 2.6555139721166325 0.32475973163322236 -18.659437960158645 0.8151017686997062 0.03536522766404742 -10.227472912900422 15.966668540482539 0.22100694003634774 -15.791214284805426 4.7311932207490175 2.3537101447374824 -56.5789019186167 2.8293253208119205 0.5550709957179703 -20.458584538983892 -4.532703936000233 0.30239578306684994 -0.7689465750397425 3.972231164203127 0.9023765839862026 -33.077238845173035 1.491531739754133 0.17082719291409654 -12.262790908004481 5.713482617954995 0.2889992291088603 0.4467284498449081 3.9658559442367403 1.788196569703974 -41.21751416098018 1.8301490548669432 0.5424958271714785 -19.271750382124786 -40.90812660566318 24.201298162719574 0.7312361627977999 5.254158153635224 -8.94676258998085 -6.576131289382921 -23.309908726533866 -4.942683242919158 6.86763287555871 19.537350862027004 0.22747479185278335 8.228280043703109 -0.9028863168654235 -8.052933681177093 59.67165229902103 149.66041386102066 0.000009176460237201722 0.0000013700696781389478 0.23714911895959132 -21.409048732347163 31.106440814447684 -5.142350228530603 0.42286551951067136 12.348057642040482 -6.537116742291904 5.1814178266027815 83.79428485409386 -0.22654018291052505 -0.19321310428233865 13.844661205343167 -18.31958337650564 8.447494615033731 74.22847233666204 -6.029759438706168 7.035353933234406 109.11981963891405 -0.31195212388118365 -0.7652714917533456 22.124690255335796 -10.63771891996673 3.0055541066921294 46.570510484805425 -6.131796204111154 3.4654453178123714 67.79068620462976 -1.725950497157545 0.21556014480810978 15.89166933467567 -11.992767853397076 5.300177755326969 57.27290397466936 -5.523972969011683 6.174234085035382 88.88302712833138 0.023250297604595394 -0.15169326255512058 17.815306469597633 -11.923570789346591 -10.069572877217027 -7.768865644658124 -9.20986928008795 5.505328992552833 -6.758525647583398 -11.389420968542684 -6.807152219807814 10.892118415013222 -28.700543049776577 -4.606888092620734 17.374042990298786 -7.533960916601405 37.99359682873047 -2.208570932607723 -1.8970100547368856 -3.4368712681625544 -9.588010404877608 0.0000029185365845015433 -26.32070768621626 9.69027526537886e-7 -1.5043802003426532 1.2713728629577412 16.10051921707178 -2.226733423661779 11.187065453264124 5.560108544281513 -7.837295557305545 -10.252443060724145 -11.237186494018912 -0.000002560063021877706 -1.7777670506972911 0.0000030861925216542915
-0.2339454401623119 8.693708939985795 1.3470367637334832 5.069998161873897 -3.9601721274724695 -9.305666062665823 4.04903036857201 2.2572508282738246 4.355771569424364 0.24544915528702826 1.8760490136874572 -7.062510456976673 0 0 0 -3.4808518747857082 6.359414769290729 5.506325336334083 -28.929936808297096 8.892414083595717 27.713326025922438 0 0 0 0 0 0 -14.194872972927673 4.215156305272974 8.884184238388054 -46.50583267891882 49.14597424270288 -93.90384050537085 -93.54943386885654 -0.0000906851084749475 0.00006603558618959957 -10.33781028162046 29.320128296737515 39.18272771829182 -11.932077821725231 2.2107311239781886 5.650063368350883 2.6548901108214515 0.32455695713694477 -18.65325943008707 0.8151042230510376 0.03536561119525063 -10.227506893751722 15.965999379218845 0.23087638667301588 -15.848927140988764 4.73119137371007 2.3537475288746648 -56.579049801337185 2.8293206305607708 0.5550864177281771 -20.458558558914508 -4.531980788856478 0.2922996670063522 -0.826486768813154 3.9722435157134126 0.9023802129742677 -33.077271061468466 1.4915421949841563 0.17082420469305326 -12.262750354258587 5.713502922207873 0.28956035230928223 0.3882562289068119 3.9622102854398094 1.7843022165450526 -41.16450663958883 1.8301624955450269 0.5425119428714492 -19.27170718688695 -40.91688537715118 24.143662254125893 0.704812217571255 5.268324142770474 -8.941186238636064 -6.575319393733409 -23.309884194948538 -4.942669103073535 6.867623532148666 19.52757512226386 0.22290825485231128 8.250165887411212 -0.8224868408607837 -7.929455446245805 59.3873643592961 149.68809561506808 0.0000020224122317485953 0.000007511667741837307 0.3180926030757106 -21.482706583368717 30.800621687455628 -5.140361168830603 0.4224242399319811 12.327900362971345 -6.533907928013068 5.153118040741394 83.51266481414292 -0.22654018291052505 -0.19321310428233865 13.844661205343167 -18.314590906826528 8.430751828799147 74.05534602236276 -6.03604575970639 7.007427163969978 108.83590842364023 -0.31195479212226196 -0.7652508926268028 22.12468105923817 -10.63271015405459 2.9955183261283693 46.43307903255228 -6.1255905390026335 3.451392865334439 67.63746480753973 -1.725950497157545 0.21556014480810978 15.89166933467567 -11.995161649529958 5.290370437795152 57.13506451413599 -5.525672091106147 6.152546673201421 88.66552084107352 0.023250297604595394 -0.15169326255512058 17.815306469597633 -11.879181158317369 -9.941025427380623 -7.795763654716289 -9.300147171241866 5.483981330523488 -6.709838210762247 -11.384462918683132 -6.81219775730889 10.851603878078276 -28.7056345092967 -4.600052500543515 17.36756172313598 -7.4938069106795835 38.023429956710714 -2.1667859033871797 -1.9171300858176732 -3.4041890731386752 -9.525509318506108 0.000003558256807673131 -26.419469590176178 -0.000008712044773364873 -1.4374686370635124 1.3267209073644757 16.122402442290415 -2.3178604444019157 11.071244115438997 5.5557299248606755 -7.824704373707116 -10.221405225602664 -11.247246109590387 -7.262776828900587e-7 -1.870469609375341 -5.729075304922704e-7
-0.23490195924585516 8.694073070179332 1.351647670681226 5.0828499305454455 -3.953014104336972 -9.31078954352671 4.043118357734385 2.2541003101932957 4.385718847469055 0.2430353664441259 1.8722479010890427 -7.048336461397765 0 0 0 -3.475949232065489 6.370891935878452 5.485752318834437 -28.899034076190276 8.929231769365169 27.688590855487288 0 0 0 0 0 0 -14.16420842755866 4.217127453406118 8.90847888008024 -46.46068290600474 49.081674973641974 -93.90878381189053 -93.48648264666862 -0.00005049844894138781 0.0000817324249405978 -10.449990594395427 29.33959496136606 39.084157962499 -11.927364599364878 2.1850559102470073 5.56780661976101 2.6539953117327832 0.32424823297416744 -18.643714628328404 0.8150937653801266 0.03534279609124315 -10.227559125341916 15.96489090937526 0.245538608380901 -15.934599246327027 4.731222030697216 2.3537518013475496 -56.57924983110246 2.829335980473483 0.5550826822931753 -20.458526179168228 -4.530829626605214 0.2773287745528894 -0.9118476171830894 3.972240960228557 0.9023897123842199 -33.077344946197904 1.4915308862659635 0.17082400458896554 -12.262704794729126 5.713514646251838 0.29037062055637336 0.3014700478738339 3.9585435285122283 1.7803942046558205 -41.11090759049757 1.8301501215874334 0.5425102352476092 -19.27165641671033 -40.929161813012385 24.057161698670242 0.6668196115817585 5.2814029156573925 -8.936028276090417 -6.5745728638190215 -23.309858089336213 -4.942678101157078 6.867618427278508 19.519099344102607 0.22525437607393115 8.2465711408778 -0.7240192951623778 -7.868168100655633 59.07553854504419 149.68272165297657 0.000014701561463661566 -0.000011328515745321076 0.4080666327172031 -21.60007480014332 30.510839500383884 -5.138170438188129 0.421932693091767 12.305716700267805 -6.5302009061046595 5.121973188013483 83.20272133463267 -0.22654018291052505 -0.19321310428233865 13.844661205343167 -18.3090251616734 8.412328524305227 73.8647487194624 -6.042785829825262 6.976635204527346 108.52341605360785 -0.31196239660932784 -0.7652635936426387 22.124675027052074 -10.627162637645183 2.98445607603674 46.28176414166257 -6.1187324580255975 3.4359349158512105 67.46884742581392 -1.725950497157545 0.21556014480810978 15.89166933467567 -11.997772671763613 5.279527522240826 56.98331775839825 -5.527454076253518 6.128687678023129 88.4261033770109 0.023250297604595394 -0.15169326255512058 17.815306469597633 -11.830278207286177 -9.79953202189258 -7.825243424460276 -9.399597777237217 5.460523284170493 -6.656314646674505 -11.379111106566222 -6.8178890978911655 10.80704195770951 -28.705753711794802 -4.591780155696925 17.35436268649808 -7.455344559265049 38.05123255188144 -2.127759066013006 -1.9175974063258836 -3.3728483846370434 -9.472208572424716 2.8930358669431673e-7 -26.512480656756125 -0.000009602128759053225 -1.375519101538556 1.377943665654558 16.134316363446658 -2.40262822496103 10.972825003792623 5.5568143584778245 -7.808227669861928 -10.199027765153808 -11.258105988417647 0.000006498125350329063 -1.9640089171421946 -8.155873049962144e-7
